<svg width="20" height="21" viewBox="0 0 20 21" fill="none" xmlns="http://www.w3.org/2000/svg">
<path fill-rule="evenodd" clip-rule="evenodd" d="M13.937 8.76163L10.7006 11.998V2.90778H9.30065V11.998L6.06429 8.76163L5.07434 9.75158L9.50567 14.1829L10.0006 14.6779L10.4956 14.1829L14.9269 9.75158L13.937 8.76163ZM1.80078 14.2501V17.2501C1.80078 17.6367 2.11418 17.9501 2.50078 17.9501H17.5008C17.8874 17.9501 18.2008 17.6367 18.2008 17.2501V14.2501H16.8008V16.5501H3.20078V14.2501H1.80078Z" fill="#2D2D2D"/>
<path fill-rule="evenodd" clip-rule="evenodd" d="M13.937 8.76163L10.7006 11.998V2.90778H9.30065V11.998L6.06429 8.76163L5.07434 9.75158L9.50567 14.1829L10.0006 14.6779L10.4956 14.1829L14.9269 9.75158L13.937 8.76163ZM1.80078 14.2501V17.2501C1.80078 17.6367 2.11418 17.9501 2.50078 17.9501H17.5008C17.8874 17.9501 18.2008 17.6367 18.2008 17.2501V14.2501H16.8008V16.5501H3.20078V14.2501H1.80078Z" fill="black" fill-opacity="0.2"/>
<path fill-rule="evenodd" clip-rule="evenodd" d="M13.937 8.76163L10.7006 11.998V2.90778H9.30065V11.998L6.06429 8.76163L5.07434 9.75158L9.50567 14.1829L10.0006 14.6779L10.4956 14.1829L14.9269 9.75158L13.937 8.76163ZM1.80078 14.2501V17.2501C1.80078 17.6367 2.11418 17.9501 2.50078 17.9501H17.5008C17.8874 17.9501 18.2008 17.6367 18.2008 17.2501V14.2501H16.8008V16.5501H3.20078V14.2501H1.80078Z" fill="black" fill-opacity="0.2"/>
</svg>
