<svg width="24" height="24" viewBox="0 0 24 24" fill="none" xmlns="http://www.w3.org/2000/svg">
<g clip-path="url(#clip0_43_6491)">
<path d="M19.5714 12.7285L11.0714 21.2999C10.7416 21.636 10.3481 21.9029 9.91396 22.0851C9.4798 22.2673 9.01368 22.3612 8.54283 22.3612C8.07198 22.3612 7.60585 22.2673 7.1717 22.0851C6.73754 21.9029 6.34406 21.636 6.01426 21.2999L3.4714 18.7142C2.80572 18.0381 2.43262 17.1273 2.43262 16.1785C2.43262 15.2297 2.80572 14.3189 3.4714 13.6428L12.5285 4.55705C12.7942 4.28926 13.1102 4.0767 13.4583 3.93165C13.8065 3.78659 14.1799 3.71191 14.5571 3.71191C14.9343 3.71191 15.3077 3.78659 15.6559 3.93165C16.0041 4.0767 16.3201 4.28926 16.5857 4.55705L17.6 5.57134C17.8678 5.83695 18.0803 6.15295 18.2254 6.50112C18.3704 6.84929 18.4451 7.22273 18.4451 7.59991C18.4451 7.97709 18.3704 8.35053 18.2254 8.6987C18.0803 9.04687 17.8678 9.36287 17.6 9.62848L9.5714 17.6856C9.4386 17.8195 9.28059 17.9258 9.10651 17.9983C8.93243 18.0709 8.7457 18.1082 8.55711 18.1082C8.36853 18.1082 8.1818 18.0709 8.00772 17.9983C7.83363 17.9258 7.67563 17.8195 7.54283 17.6856L7.04283 17.1713C6.90893 17.0385 6.80265 16.8805 6.73013 16.7064C6.6576 16.5324 6.62026 16.3456 6.62026 16.1571C6.62026 15.9685 6.6576 15.7817 6.73013 15.6077C6.80265 15.4336 6.90893 15.2756 7.04283 15.1428L12.4285 9.79991" stroke="#000001" stroke-width="1.4" stroke-linecap="round" stroke-linejoin="round"/>
</g>
<defs>
<clipPath id="clip0_43_6491">
<rect width="20" height="20" fill="white" transform="translate(1 3)"/>
</clipPath>
</defs>
</svg>
