<svg width="20" height="24" viewBox="0 0 20 24" fill="none" xmlns="http://www.w3.org/2000/svg">
<g clip-path="url(#clip0_3_3703)">
<path d="M13.0148 0.634666H3.07825C1.7352 0.634666 0.648438 1.69774 0.648438 3.0115V20.9885C0.648438 22.3023 1.7352 23.3653 3.07825 23.3653H16.5574C17.9004 23.3653 18.9872 22.3023 18.9872 20.9885V6.47679L13.0148 0.634666Z" fill="white"/>
<path fill-rule="evenodd" clip-rule="evenodd" d="M0 3.0115C0 1.34722 1.37725 0 3.07862 0H13.0152C13.1873 0 13.3523 0.0668667 13.474 0.18589L19.4463 6.02802C19.568 6.14704 19.6364 6.30847 19.6364 6.4768V20.9885C19.6364 22.6528 18.2591 24 16.5577 24H3.07862C1.37725 24 0 22.6528 0 20.9885V3.0115ZM3.07862 1.26934C2.09391 1.26934 1.29763 2.04826 1.29763 3.0115V20.9885C1.29763 21.9517 2.09391 22.7307 3.07862 22.7307H16.5577C17.5425 22.7307 18.3387 21.9517 18.3387 20.9885V6.73968L12.7465 1.26934H3.07862Z" fill="#231F20"/>
<path d="M18.987 6.47679L13.0146 0.634666V4.86473C13.0146 5.75327 13.7511 6.47679 14.6626 6.47679H18.987Z" fill="white"/>
<path fill-rule="evenodd" clip-rule="evenodd" d="M12.7667 0.0483146C13.0092 -0.0499201 13.2882 0.00437947 13.4738 0.185893L19.4461 6.02802C19.6317 6.20953 19.6872 6.48252 19.5868 6.71968C19.4864 6.95684 19.2498 7.11147 18.9874 7.11147H14.663C13.3923 7.11147 12.3662 6.10298 12.3662 4.86474V0.634672C12.3662 0.377973 12.5243 0.146549 12.7667 0.0483146ZM13.6638 2.1669V4.86474C13.6638 5.40357 14.1106 5.84213 14.663 5.84213H17.421L13.6638 2.1669Z" fill="#231F20"/>
<path fill-rule="evenodd" clip-rule="evenodd" d="M5.1539 11.5528C5.40728 11.305 5.81808 11.305 6.07146 11.5528L9.81718 15.2169L13.566 11.5526C13.8194 11.3049 14.2302 11.305 14.4835 11.553C14.7368 11.8009 14.7366 12.2028 14.4832 12.4505L10.2756 16.5632C10.0222 16.8109 9.61153 16.8108 9.35822 16.563L5.1539 12.4504C4.90052 12.2025 4.90052 11.8007 5.1539 11.5528Z" fill="#231F20"/>
<path fill-rule="evenodd" clip-rule="evenodd" d="M9.81678 7.60968C10.1751 7.60968 10.4656 7.89383 10.4656 8.24435V16.1142C10.4656 16.4648 10.1751 16.7489 9.81678 16.7489C9.45845 16.7489 9.16797 16.4648 9.16797 16.1142V8.24435C9.16797 7.89383 9.45845 7.60968 9.81678 7.60968Z" fill="#231F20"/>
<path fill-rule="evenodd" clip-rule="evenodd" d="M4.36035 19.2495C4.36035 18.899 4.65084 18.6148 5.00917 18.6148H14.6278C14.9862 18.6148 15.2767 18.899 15.2767 19.2495C15.2767 19.6 14.9862 19.8842 14.6278 19.8842H5.00917C4.65084 19.8842 4.36035 19.6 4.36035 19.2495Z" fill="#231F20"/>
</g>
<defs>
<clipPath id="clip0_3_3703">
<rect width="19.6364" height="24" fill="white"/>
</clipPath>
</defs>
</svg>
