<svg width="24" height="24" viewBox="0 0 24 24" fill="none" xmlns="http://www.w3.org/2000/svg">
<path fill-rule="evenodd" clip-rule="evenodd" d="M3.87147 10.8666C3.42966 11.4194 3.29995 11.8143 3.29995 12C3.29995 12.1856 3.42966 12.5805 3.87147 13.1333C4.29157 13.659 4.92184 14.2357 5.72612 14.7718C7.33571 15.8446 9.55884 16.7 12 16.7C14.4411 16.7 16.6642 15.8446 18.2738 14.7718C19.0781 14.2357 19.7083 13.659 20.1284 13.1333C20.5702 12.5805 20.7 12.1856 20.7 12C20.7 11.8143 20.5702 11.4194 20.1284 10.8666C19.7083 10.3409 19.0781 9.7642 18.2738 9.22814C16.6642 8.15534 14.4411 7.29995 12 7.29995C9.55884 7.29995 7.33571 8.15534 5.72612 9.22814C4.92184 9.7642 4.29157 10.3409 3.87147 10.8666ZM4.83875 7.89676C6.66749 6.67789 9.19436 5.69995 12 5.69995C14.8055 5.69995 17.3324 6.67789 19.1612 7.89676C20.076 8.50654 20.837 9.19029 21.3784 9.86771C21.898 10.518 22.3 11.2689 22.3 12C22.3 12.731 21.898 13.4819 21.3784 14.1322C20.837 14.8096 20.076 15.4934 19.1612 16.1031C17.3324 17.322 14.8055 18.3 12 18.3C9.19436 18.3 6.66749 17.322 4.83875 16.1031C3.92387 15.4934 3.1629 14.8096 2.62155 14.1322C2.10191 13.4819 1.69995 12.731 1.69995 12C1.69995 11.2689 2.10191 10.518 2.62155 9.86771C3.1629 9.19029 3.92387 8.50654 4.83875 7.89676ZM12 9.13328C10.3159 9.13328 8.99995 10.4434 8.99995 12C8.99995 13.5565 10.3159 14.8666 12 14.8666C13.684 14.8666 15 13.5565 15 12C15 10.4434 13.684 9.13328 12 9.13328ZM7.39995 12C7.39995 9.50639 9.48661 7.53328 12 7.53328C14.5133 7.53328 16.6 9.50639 16.6 12C16.6 14.4935 14.5133 16.4666 12 16.4666C9.48661 16.4666 7.39995 14.4935 7.39995 12Z" fill="#2D2D2D"/>
<path fill-rule="evenodd" clip-rule="evenodd" d="M3.87147 10.8666C3.42966 11.4194 3.29995 11.8143 3.29995 12C3.29995 12.1856 3.42966 12.5805 3.87147 13.1333C4.29157 13.659 4.92184 14.2357 5.72612 14.7718C7.33571 15.8446 9.55884 16.7 12 16.7C14.4411 16.7 16.6642 15.8446 18.2738 14.7718C19.0781 14.2357 19.7083 13.659 20.1284 13.1333C20.5702 12.5805 20.7 12.1856 20.7 12C20.7 11.8143 20.5702 11.4194 20.1284 10.8666C19.7083 10.3409 19.0781 9.7642 18.2738 9.22814C16.6642 8.15534 14.4411 7.29995 12 7.29995C9.55884 7.29995 7.33571 8.15534 5.72612 9.22814C4.92184 9.7642 4.29157 10.3409 3.87147 10.8666ZM4.83875 7.89676C6.66749 6.67789 9.19436 5.69995 12 5.69995C14.8055 5.69995 17.3324 6.67789 19.1612 7.89676C20.076 8.50654 20.837 9.19029 21.3784 9.86771C21.898 10.518 22.3 11.2689 22.3 12C22.3 12.731 21.898 13.4819 21.3784 14.1322C20.837 14.8096 20.076 15.4934 19.1612 16.1031C17.3324 17.322 14.8055 18.3 12 18.3C9.19436 18.3 6.66749 17.322 4.83875 16.1031C3.92387 15.4934 3.1629 14.8096 2.62155 14.1322C2.10191 13.4819 1.69995 12.731 1.69995 12C1.69995 11.2689 2.10191 10.518 2.62155 9.86771C3.1629 9.19029 3.92387 8.50654 4.83875 7.89676ZM12 9.13328C10.3159 9.13328 8.99995 10.4434 8.99995 12C8.99995 13.5565 10.3159 14.8666 12 14.8666C13.684 14.8666 15 13.5565 15 12C15 10.4434 13.684 9.13328 12 9.13328ZM7.39995 12C7.39995 9.50639 9.48661 7.53328 12 7.53328C14.5133 7.53328 16.6 9.50639 16.6 12C16.6 14.4935 14.5133 16.4666 12 16.4666C9.48661 16.4666 7.39995 14.4935 7.39995 12Z" fill="black" fill-opacity="0.2"/>
<path fill-rule="evenodd" clip-rule="evenodd" d="M3.87147 10.8666C3.42966 11.4194 3.29995 11.8143 3.29995 12C3.29995 12.1856 3.42966 12.5805 3.87147 13.1333C4.29157 13.659 4.92184 14.2357 5.72612 14.7718C7.33571 15.8446 9.55884 16.7 12 16.7C14.4411 16.7 16.6642 15.8446 18.2738 14.7718C19.0781 14.2357 19.7083 13.659 20.1284 13.1333C20.5702 12.5805 20.7 12.1856 20.7 12C20.7 11.8143 20.5702 11.4194 20.1284 10.8666C19.7083 10.3409 19.0781 9.7642 18.2738 9.22814C16.6642 8.15534 14.4411 7.29995 12 7.29995C9.55884 7.29995 7.33571 8.15534 5.72612 9.22814C4.92184 9.7642 4.29157 10.3409 3.87147 10.8666ZM4.83875 7.89676C6.66749 6.67789 9.19436 5.69995 12 5.69995C14.8055 5.69995 17.3324 6.67789 19.1612 7.89676C20.076 8.50654 20.837 9.19029 21.3784 9.86771C21.898 10.518 22.3 11.2689 22.3 12C22.3 12.731 21.898 13.4819 21.3784 14.1322C20.837 14.8096 20.076 15.4934 19.1612 16.1031C17.3324 17.322 14.8055 18.3 12 18.3C9.19436 18.3 6.66749 17.322 4.83875 16.1031C3.92387 15.4934 3.1629 14.8096 2.62155 14.1322C2.10191 13.4819 1.69995 12.731 1.69995 12C1.69995 11.2689 2.10191 10.518 2.62155 9.86771C3.1629 9.19029 3.92387 8.50654 4.83875 7.89676ZM12 9.13328C10.3159 9.13328 8.99995 10.4434 8.99995 12C8.99995 13.5565 10.3159 14.8666 12 14.8666C13.684 14.8666 15 13.5565 15 12C15 10.4434 13.684 9.13328 12 9.13328ZM7.39995 12C7.39995 9.50639 9.48661 7.53328 12 7.53328C14.5133 7.53328 16.6 9.50639 16.6 12C16.6 14.4935 14.5133 16.4666 12 16.4666C9.48661 16.4666 7.39995 14.4935 7.39995 12Z" fill="black" fill-opacity="0.2"/>
</svg>
