<svg width="24" height="24" viewBox="0 0 24 24" fill="none" xmlns="http://www.w3.org/2000/svg">
<path fill-rule="evenodd" clip-rule="evenodd" d="M12 2C6.47715 2 2 6.47715 2 12C2 13.5113 2.33527 14.9443 2.93548 16.2287L2.06724 20.3995C1.99384 20.7521 2.30605 21.0643 2.65865 20.9909L6.31701 20.2293C7.93082 21.3459 9.88902 22 12 22C17.5228 22 22 17.5228 22 12C22 6.47715 17.5228 2 12 2Z" fill="#246BEB"/>
<path d="M10.8352 14.7933V14.6548C10.8388 14.0121 10.8991 13.5007 11.0163 13.1207C11.1371 12.7408 11.3075 12.4354 11.5277 12.2046C11.7479 11.9702 12.016 11.7553 12.332 11.56C12.5487 11.4251 12.7422 11.2777 12.9126 11.1179C13.0866 10.9546 13.2234 10.7734 13.3228 10.5746C13.4222 10.3722 13.4719 10.1467 13.4719 9.89809C13.4719 9.61755 13.4062 9.3743 13.2749 9.16833C13.1435 8.96237 12.9659 8.80257 12.7422 8.68893C12.522 8.5753 12.2752 8.51848 12.0018 8.51848C11.7496 8.51848 11.5099 8.57352 11.2827 8.68361C11.0589 8.79014 10.8725 8.95349 10.7234 9.17366C10.5778 9.39028 10.4961 9.66549 10.4783 9.9993H8.58203C8.59979 9.32458 8.76314 8.75995 9.07209 8.30541C9.38459 7.85086 9.79652 7.50995 10.3079 7.28268C10.8228 7.05541 11.391 6.94177 12.0124 6.94177C12.6907 6.94177 13.2873 7.06074 13.8022 7.29866C14.3207 7.53659 14.7237 7.87572 15.0114 8.31606C15.3026 8.75285 15.4482 9.27132 15.4482 9.87146C15.4482 10.2763 15.3825 10.6385 15.2511 10.9581C15.1232 11.2777 14.9403 11.5618 14.7024 11.8104C14.4645 12.059 14.1822 12.2809 13.8555 12.4762C13.5678 12.6538 13.3317 12.8384 13.147 13.0302C12.9659 13.222 12.831 13.4475 12.7422 13.7067C12.657 13.9624 12.6126 14.2784 12.609 14.6548V14.7933H10.8352ZM11.7621 18.1172C11.4425 18.1172 11.1673 18.0036 10.9364 17.7763C10.7056 17.549 10.5902 17.272 10.5902 16.9453C10.5902 16.6257 10.7056 16.3523 10.9364 16.125C11.1673 15.8977 11.4425 15.7841 11.7621 15.7841C12.0781 15.7841 12.3516 15.8977 12.5824 16.125C12.8168 16.3523 12.9339 16.6257 12.9339 16.9453C12.9339 17.1619 12.8789 17.359 12.7688 17.5366C12.6623 17.7141 12.5202 17.8562 12.3427 17.9627C12.1687 18.0657 11.9751 18.1172 11.7621 18.1172Z" fill="white"/>
</svg>
