<svg width="28" height="20" viewBox="0 0 28 20" fill="none" xmlns="http://www.w3.org/2000/svg">
<g filter="url(#filter0_d_3_3953)">
<g clip-path="url(#clip0_3_3953)">
<path d="M2 2H26V18H2V2Z" fill="white"/>
<path d="M10.6716 7.78115C11.2601 6.89847 12.1751 6.28571 13.2154 6.07767C14.2557 5.86963 15.336 6.08335 16.2187 6.67182C17.1013 7.26029 17.7141 8.1753 17.9221 9.21556C18.1302 10.2558 17.9165 11.3361 17.328 12.2188L10.6716 7.78115Z" fill="#D0303C"/>
<path d="M10.6717 7.78117C10.0832 8.66385 9.86952 9.74415 10.0776 10.7844C10.2856 11.8247 10.8984 12.7397 11.7811 13.3282C12.6637 13.9166 13.744 14.1304 14.7843 13.9223C15.8246 13.7143 16.7396 13.1015 17.3281 12.2188C17.6223 11.7775 17.7292 11.2373 17.6251 10.7172C17.5211 10.1971 17.2147 9.73958 16.7734 9.44534C16.3321 9.15111 15.7919 9.04424 15.2718 9.14826C14.7516 9.25228 14.2941 9.55866 13.9999 10L10.6717 7.78117Z" fill="#134A9D"/>
<path d="M13.9998 10C14.6126 9.08097 14.3642 7.83923 13.4452 7.22651C12.5261 6.6138 11.2844 6.86213 10.6717 7.78118C10.059 8.70022 10.3073 9.94196 11.2263 10.5547C12.1454 11.1674 13.3871 10.9191 13.9998 10Z" fill="#D0303C"/>
<path d="M5.67953 6.85663L7.89833 3.52843L8.45303 3.89823L6.23423 7.22643L5.67953 6.85663ZM6.51158 7.41133L8.73038 4.08313L9.28508 4.45293L7.06628 7.78113L6.51158 7.41133ZM7.34363 7.96603L9.56243 4.63783L10.1171 5.00763L7.89833 8.33583L7.34363 7.96603Z" fill="black"/>
<path d="M21.3036 14.6686L22.3205 13.1432L21.7658 12.7734L20.7489 14.2988L21.3036 14.6686Z" fill="black"/>
<path d="M20.4715 14.1139L21.4884 12.5885L20.9337 12.2187L19.9168 13.7441L20.4715 14.1139Z" fill="black"/>
<path d="M19.7319 14.0214L20.2866 14.3912L19.2696 15.9167L18.7149 15.5469L19.7319 14.0214Z" fill="black"/>
<path d="M19.6395 13.5592L20.6564 12.0338L20.1017 11.664L19.0848 13.1894L19.6395 13.5592Z" fill="black"/>
<path d="M18.8999 13.4667L19.4546 13.8365L18.4376 15.362L17.8829 14.9922L18.8999 13.4667Z" fill="black"/>
<path d="M20.564 14.5761L21.1187 14.9459L20.1017 16.4714L19.547 16.1016L20.564 14.5761Z" fill="black"/>
<path d="M19.4545 6.16348L18.4375 4.63799L17.8828 5.00779L18.8998 6.53328L19.4545 6.16348Z" fill="black"/>
<path d="M19.0847 6.81063L20.1016 8.33599L20.6563 7.96619L19.6394 6.44083L19.0847 6.81063Z" fill="black"/>
<path d="M20.9336 7.78129L18.7148 4.45309L19.2695 4.08329L21.4883 7.41149L20.9336 7.78129Z" fill="black"/>
<path d="M21.7657 7.22659L20.7487 5.7012L21.3034 5.3314L22.3204 6.85679L21.7657 7.22659Z" fill="black"/>
<path d="M21.1185 5.05405L20.5638 5.42385L19.5469 3.89839L20.1016 3.52859L21.1185 5.05405Z" fill="black"/>
<path d="M5.67944 13.1434L7.89824 16.4716L8.45294 16.1018L6.23414 12.7736L5.67944 13.1434Z" fill="black"/>
<path d="M7.71335 14.3915L8.73029 15.9169L9.28499 15.5471L8.26805 14.0217L7.71335 14.3915Z" fill="black"/>
<path d="M7.52845 14.1141L8.08315 13.7443L7.06619 12.2189L6.51149 12.5887L7.52845 14.1141Z" fill="black"/>
<path d="M7.34354 12.034L9.56234 15.3622L10.117 14.9924L7.89824 11.6642L7.34354 12.034Z" fill="black"/>
</g>
</g>
<defs>
<filter id="filter0_d_3_3953" x="0" y="0" width="28" height="20" filterUnits="userSpaceOnUse" color-interpolation-filters="sRGB">
<feFlood flood-opacity="0" result="BackgroundImageFix"/>
<feColorMatrix in="SourceAlpha" type="matrix" values="0 0 0 0 0 0 0 0 0 0 0 0 0 0 0 0 0 0 127 0" result="hardAlpha"/>
<feOffset/>
<feGaussianBlur stdDeviation="1"/>
<feComposite in2="hardAlpha" operator="out"/>
<feColorMatrix type="matrix" values="0 0 0 0 0 0 0 0 0 0 0 0 0 0 0 0 0 0 0.1 0"/>
<feBlend mode="normal" in2="BackgroundImageFix" result="effect1_dropShadow_3_3953"/>
<feBlend mode="normal" in="SourceGraphic" in2="effect1_dropShadow_3_3953" result="shape"/>
</filter>
<clipPath id="clip0_3_3953">
<rect x="2" y="2" width="24" height="16" rx="1" fill="white"/>
</clipPath>
</defs>
</svg>
